# xmcd
#
# Track frame offsets: 
#        150
#        12755
#        23642
#        33200
#        43400
#        53390
#        62392
#        72497
#        80770
#        92642
#        103027
#        113642
#        124317
#        136815
#        150192
#        165465
#        175110
#        184672
#        197182
#        207132
#        222837
#        237165
#        247467
#        258680
#        271297
#
# Disc length: 3794 seconds
#
# Revision: 0
# Processed by: cddbd v1.4PL0 Copyright (c) Steve Scherf et al.
# Submitted via: ExactAudioCopy v0.90b4
#
DISCID=570ed019
DTITLE=Don Reno - Don Reno, Founding Father of the Bluegrass Banjo
DYEAR=2001
DGENRE=Bluegrass
TTITLE0=I'm the Talk of the Town
TTITLE1=Dixie Breakdown
TTITLE2=Home in the Mountains
TTITLE3=Feudin' Banjos
TTITLE4=I'm Using My Bible for a Roadmap
TTITLE5=Follow the Leader
TTITLE6=I Know You're Married (But I love You Still)
TTITLE7=Charlotte Breakdown
TTITLE8=Country Boy Rock 'N' Roll
TTITLE9=Five Foot Two Eyes of Blue
TTITLE10=Are You Missing Me
TTITLE11=Dear Old Dixie
TTITLE12=I Want To Go Back to The Mountains
TTITLE13=Reno Ride
TTITLE14=One Morning in May
TTITLE15=Banjo Signal
TTITLE16=The Lord's Last Supper
TTITLE17=Cincinnati Rag
TTITLE18=Limehouse Blues
TTITLE19=Miss Elsie's Place
TTITLE20=Skyline Drive
TTITLE21=He's Coming Back to Earth Again
TTITLE22=Long Gone
TTITLE23=Bye Bye Blues
TTITLE24=Take Me Along for the Ride
EXTD=
EXTT0=
EXTT1=
EXTT2=
EXTT3=
EXTT4=
EXTT5=
EXTT6=
EXTT7=
EXTT8=
EXTT9=
EXTT10=
EXTT11=
EXTT12=
EXTT13=
EXTT14=
EXTT15=
EXTT16=
EXTT17=
EXTT18=
EXTT19=
EXTT20=
EXTT21=
EXTT22=
EXTT23=
EXTT24=
PLAYORDER=
